<svg width="120" height="30" viewBox="0 0 120 30" fill="none" xmlns="http://www.w3.org/2000/svg">
<path d="M14.8084 0L27.6329 7.5V22.5L14.8084 30L1.98389 22.5V7.5L14.8084 0Z" fill="#234F8C"/>
<path d="M17.5936 12.0391C17.5356 11.4464 17.2866 10.986 16.8465 10.6578C16.4065 10.3296 15.8093 10.1655 15.0549 10.1655C14.5424 10.1655 14.1096 10.239 13.7566 10.386C13.4036 10.528 13.1328 10.7264 12.9442 10.9811C12.7605 11.2358 12.6686 11.5248 12.6686 11.848C12.6589 12.1175 12.7145 12.3526 12.8354 12.5534C12.9611 12.7542 13.1328 12.9281 13.3504 13.075C13.568 13.2171 13.8195 13.342 14.1047 13.4497C14.39 13.5526 14.6947 13.6408 15.0187 13.7142L16.3533 14.0375C17.0013 14.1845 17.5961 14.3804 18.1376 14.6253C18.6792 14.8702 19.1483 15.1714 19.5448 15.529C19.9413 15.8865 20.2484 16.3078 20.466 16.7927C20.6884 17.2776 20.802 17.8335 20.8069 18.4605C20.802 19.3814 20.5699 20.1797 20.1105 20.8557C19.656 21.5267 18.9984 22.0484 18.1376 22.4206C17.2817 22.788 16.2493 22.9717 15.0404 22.9717C13.8412 22.9717 12.7967 22.7856 11.907 22.4133C11.022 22.041 10.3306 21.49 9.83252 20.7602C9.33926 20.0255 9.08058 19.1169 9.0564 18.0344H12.0956C12.1294 18.5389 12.2721 18.9601 12.5235 19.2981C12.7798 19.6312 13.1207 19.8834 13.5462 20.0549C13.9766 20.2214 14.4626 20.3047 15.0042 20.3047C15.5361 20.3047 15.9979 20.2263 16.3896 20.0695C16.7861 19.9128 17.0932 19.6948 17.3107 19.4157C17.5283 19.1364 17.6371 18.8156 17.6371 18.4532C17.6371 18.1152 17.538 17.8311 17.3398 17.6009C17.1463 17.3707 16.861 17.1748 16.4839 17.0131C16.1115 16.8515 15.6546 16.7045 15.113 16.5723L13.4955 16.1608C12.243 15.8523 11.2542 15.3698 10.5288 14.7134C9.80349 14.0571 9.44323 13.173 9.44808 12.0611C9.44323 11.1501 9.68259 10.3541 10.1662 9.67328C10.6546 8.99244 11.3243 8.461 12.1753 8.07894C13.0264 7.6969 13.9935 7.50586 15.0767 7.50586C16.1792 7.50586 17.1415 7.6969 17.9635 8.07894C18.7904 8.461 19.4336 8.99244 19.893 9.67328C20.3523 10.3541 20.5893 11.1427 20.6038 12.0391H17.5936Z" fill="white"/>
<path d="M42.0748 11.0502C41.9895 10.1812 41.6106 9.49003 40.9383 8.97677C40.2661 8.46351 39.4207 8.20688 38.4023 8.20688C37.6848 8.20688 37.0526 8.33138 36.506 8.58041C35.964 8.82941 35.5376 9.17498 35.2266 9.61709C34.9205 10.0541 34.7675 10.5521 34.7675 11.1111C34.7675 11.5228 34.8554 11.8836 35.031 12.1935C35.2064 12.5036 35.4423 12.7703 35.7383 12.994C36.0393 13.2125 36.3704 13.4005 36.7317 13.558C37.0978 13.7156 37.4665 13.8477 37.838 13.9544L39.4634 14.427C39.9551 14.5642 40.4466 14.7395 40.9383 14.953C41.4301 15.1664 41.8789 15.4357 42.2854 15.761C42.6967 16.0811 43.0253 16.475 43.2712 16.9425C43.5222 17.4049 43.6475 17.9614 43.6475 18.6119C43.6475 19.4453 43.4343 20.1949 43.0077 20.8606C42.5813 21.5263 41.9693 22.0548 41.1717 22.4461C40.3738 22.8323 39.4182 23.0254 38.3045 23.0254C37.2559 23.0254 36.3454 22.8501 35.5728 22.4995C34.8002 22.1437 34.1931 21.6533 33.7516 21.0283C33.3102 20.4032 33.0617 19.679 33.0066 18.8558H34.4514C34.5017 19.4707 34.7022 19.9916 35.0535 20.4184C35.4045 20.8453 35.8613 21.1706 36.423 21.3942C36.985 21.6127 37.612 21.7219 38.3045 21.7219C39.072 21.7219 39.7544 21.5923 40.3514 21.3332C40.9534 21.0689 41.425 20.703 41.7661 20.2355C42.1123 19.7629 42.2854 19.2141 42.2854 18.589C42.2854 18.0605 42.1498 17.6184 41.8789 17.2626C41.608 16.9018 41.2294 16.5995 40.7428 16.3556C40.261 16.1116 39.7016 15.8956 39.0646 15.7076L37.2209 15.1588C36.0117 14.7929 35.0737 14.2873 34.4063 13.6419C33.7391 12.9965 33.4054 12.1732 33.4054 11.1721C33.4054 10.3336 33.6263 9.59676 34.0677 8.96154C34.5143 8.32122 35.1163 7.82322 35.8738 7.46748C36.6362 7.10668 37.4918 6.92627 38.4398 6.92627C39.3983 6.92627 40.2459 7.10412 40.9835 7.45986C41.7209 7.81559 42.3053 8.30599 42.7368 8.93105C43.1734 9.55101 43.4068 10.2574 43.4366 11.0502H42.0748ZM45.696 22.7586V11.0502H46.9978V12.8491H47.1181C47.3489 12.2444 47.7326 11.7692 48.2696 11.4237C48.8114 11.073 49.4611 10.8977 50.2187 10.8977C51.0163 10.8977 51.6709 11.0883 52.1828 11.4694C52.6996 11.8454 53.0859 12.3638 53.3417 13.0244H53.4395C53.7005 12.374 54.1243 11.8582 54.7113 11.477C55.3034 11.0908 56.0208 10.8977 56.8636 10.8977C57.9372 10.8977 58.7851 11.2407 59.4071 11.9268C60.0293 12.6077 60.3403 13.6038 60.3403 14.9149V22.7586H59.0009V14.9149C59.0009 13.99 58.7675 13.2963 58.3008 12.8339C57.8343 12.3714 57.2198 12.1402 56.4571 12.1402C55.5743 12.1402 54.8943 12.4146 54.4179 12.9635C53.9412 13.5123 53.703 14.2085 53.703 15.0521V22.7586H52.3332V14.7929C52.3332 14.0001 52.1149 13.3598 51.6786 12.872C51.242 12.3841 50.6274 12.1402 49.8349 12.1402C49.3031 12.1402 48.8239 12.2723 48.3975 12.5366C47.976 12.8008 47.6425 13.1693 47.3966 13.6419C47.1559 14.1094 47.0354 14.6481 47.0354 15.2579V22.7586H45.696ZM66.0554 23.0254C65.3581 23.0254 64.7211 22.8882 64.144 22.6138C63.567 22.3343 63.108 21.9328 62.7669 21.4094C62.4257 20.8809 62.2552 20.2406 62.2552 19.4885C62.2552 18.9091 62.3629 18.4213 62.5787 18.0249C62.7944 17.6285 63.1006 17.3033 63.4968 17.0492C63.8931 16.7951 64.3623 16.5944 64.9041 16.447C65.4459 16.2996 66.0428 16.1853 66.6952 16.104C67.3422 16.0227 67.8891 15.9515 68.3356 15.8906C68.7873 15.8296 69.1309 15.733 69.3666 15.6009C69.6025 15.4688 69.7202 15.2553 69.7202 14.9606V14.6862C69.7202 13.8883 69.4846 13.2607 69.013 12.8034C68.5463 12.3409 67.874 12.1097 66.9962 12.1097C66.1634 12.1097 65.4834 12.2952 64.9567 12.6662C64.4349 13.0371 64.0687 13.4742 63.8581 13.9773L62.5863 13.5123C62.847 12.872 63.2083 12.3613 63.6699 11.9801C64.1315 11.5939 64.6483 11.317 65.2202 11.1492C65.7921 10.9765 66.3714 10.8901 66.9584 10.8901C67.3999 10.8901 67.8589 10.9485 68.3356 11.0654C68.8172 11.1823 69.2637 11.3855 69.6753 11.6752C70.0866 11.9598 70.42 12.3587 70.6761 12.872C70.932 13.3801 71.0599 14.0255 71.0599 14.8081V22.7586H69.7202V20.9063H69.6375C69.4769 21.2519 69.2387 21.5873 68.9226 21.9125C68.6065 22.2377 68.2103 22.5045 67.7336 22.7129C67.2569 22.9212 66.6975 23.0254 66.0554 23.0254ZM66.2361 21.7829C66.9485 21.7829 67.5656 21.6228 68.0872 21.3027C68.6091 20.9825 69.0104 20.5582 69.2913 20.0297C69.5772 19.4961 69.7202 18.9092 69.7202 18.2689V16.5766C69.6199 16.6732 69.4519 16.7595 69.2162 16.8358C68.9854 16.912 68.7168 16.9806 68.4109 17.0416C68.1099 17.0975 67.8089 17.1458 67.5079 17.1864C67.2069 17.2271 66.936 17.2626 66.6952 17.2931C66.0428 17.3744 65.486 17.5015 65.0244 17.6743C64.563 17.847 64.2091 18.0859 63.9633 18.3908C63.7177 18.6906 63.5946 19.0768 63.5946 19.5495C63.5946 20.2609 63.8456 20.8123 64.3473 21.2036C64.849 21.5898 65.4786 21.7829 66.2361 21.7829ZM73.5635 22.7586V11.0502H74.8654V12.8491H74.9632C75.194 12.2596 75.5954 11.7845 76.1673 11.4237C76.7443 11.0578 77.3964 10.8748 78.1238 10.8748C78.2343 10.8748 78.3571 10.8774 78.4927 10.8824C78.628 10.8875 78.7409 10.8926 78.8313 10.8977V12.2774C78.771 12.2673 78.6658 12.252 78.5152 12.2317C78.3648 12.2113 78.2017 12.2012 78.026 12.2012C77.424 12.2012 76.8873 12.3308 76.4157 12.5899C75.949 12.844 75.5803 13.1972 75.3094 13.6495C75.0385 14.1018 74.9029 14.6176 74.9029 15.1969V22.7586H73.5635ZM85.3348 11.0502V12.2317H79.8186V11.0502H85.3348ZM81.542 8.245H82.8891V19.7019C82.8891 20.1898 82.9718 20.5735 83.1372 20.8529C83.3029 21.1274 83.5187 21.323 83.7845 21.4399C84.0505 21.5517 84.3339 21.6076 84.6349 21.6076C84.8103 21.6076 84.961 21.5974 85.0863 21.5771C85.2117 21.5517 85.3223 21.5263 85.4175 21.5009L85.7034 22.7281C85.573 22.7789 85.4124 22.8247 85.2219 22.8653C85.0312 22.9111 84.7955 22.9339 84.5144 22.9339C84.0227 22.9339 83.5488 22.8247 83.092 22.6062C82.6406 22.3876 82.2694 22.0624 81.9783 21.6305C81.6875 21.1985 81.542 20.6624 81.542 20.0221V8.245Z" fill="white"/>
<path d="M98.3675 12.1937C98.2621 11.8228 98.114 11.495 97.9235 11.2104C97.7328 10.9207 97.4994 10.6768 97.2237 10.4786C96.9528 10.2754 96.6416 10.1204 96.2905 10.0137C95.9443 9.90693 95.5605 9.85357 95.139 9.85357C94.3513 9.85357 93.6592 10.0518 93.062 10.4481C92.4701 10.8445 92.0085 11.4213 91.6774 12.1785C91.3462 12.9306 91.1808 13.8504 91.1808 14.9379C91.1808 16.0254 91.3437 16.9503 91.6697 17.7126C91.996 18.4748 92.4574 19.0567 93.0546 19.4582C93.6515 19.8545 94.3564 20.0527 95.1691 20.0527C95.9067 20.0527 96.5364 19.9206 97.058 19.6564C97.5847 19.387 97.9861 19.0084 98.2621 18.5206C98.5429 18.0327 98.6836 17.4559 98.6836 16.7902L99.3456 16.8893H95.3724V14.4043H101.821V16.371C101.821 17.7431 101.536 18.922 100.964 19.9079C100.392 20.8887 99.604 21.6459 98.6006 22.1795C97.5975 22.708 96.4485 22.9722 95.1541 22.9722C93.7092 22.9722 92.44 22.6495 91.3462 22.0041C90.2524 21.3537 89.3997 20.4313 88.7877 19.2371C88.1805 18.0378 87.877 16.6149 87.877 14.9684C87.877 13.703 88.0577 12.5749 88.419 11.5839C88.7851 10.5879 89.2968 9.74431 89.954 9.05319C90.6112 8.36206 91.3764 7.8361 92.2493 7.4753C93.1222 7.11447 94.0679 6.93408 95.0864 6.93408C95.9593 6.93408 96.772 7.06365 97.5247 7.32284C98.2771 7.57694 98.9443 7.93774 99.5264 8.40525C100.113 8.87278 100.592 9.42923 100.964 10.0746C101.335 10.7149 101.573 11.4213 101.678 12.1937H98.3675ZM118.432 14.9532C118.432 16.6556 118.113 18.1039 117.476 19.2981C116.844 20.4923 115.981 21.4045 114.887 22.0346C113.799 22.6597 112.575 22.9722 111.215 22.9722C109.846 22.9722 108.616 22.6572 107.528 22.027C106.439 21.3969 105.579 20.4847 104.947 19.2905C104.314 18.0963 103.998 16.6505 103.998 14.9532C103.998 13.2508 104.314 11.8024 104.947 10.6082C105.579 9.414 106.439 8.50435 107.528 7.87929C108.616 7.24916 109.846 6.93408 111.215 6.93408C112.575 6.93408 113.799 7.24916 114.887 7.87929C115.981 8.50435 116.844 9.414 117.476 10.6082C118.113 11.8024 118.432 13.2508 118.432 14.9532ZM115.128 14.9532C115.128 13.8504 114.965 12.9204 114.639 12.1632C114.318 11.406 113.864 10.8318 113.277 10.4405C112.69 10.0492 112.003 9.85357 111.215 9.85357C110.428 9.85357 109.74 10.0492 109.153 10.4405C108.566 10.8318 108.11 11.406 107.784 12.1632C107.462 12.9204 107.302 13.8504 107.302 14.9532C107.302 16.0559 107.462 16.9859 107.784 17.7431C108.11 18.5002 108.566 19.0745 109.153 19.4658C109.74 19.8571 110.428 20.0527 111.215 20.0527C112.003 20.0527 112.69 19.8571 113.277 19.4658C113.864 19.0745 114.318 18.5002 114.639 17.7431C114.965 16.9859 115.128 16.0559 115.128 14.9532Z" fill="white"/>
</svg>
